<?xml version="1.0" encoding="UTF-8" standalone="no"?>
<!-- Created with Inkscape (http://www.inkscape.org/) -->

<svg
   width="87.999992"
   height="31"
   viewBox="0 0 23.283331 8.2020832"
   version="1.1"
   id="svg1"
   inkscape:export-filename="stars8831.png"
   inkscape:export-xdpi="96"
   inkscape:export-ydpi="96"
   inkscape:version="1.3.2 (091e20ef0f, 2023-11-25)"
   sodipodi:docname="stars88x31.svg"
   xml:space="preserve"
   xmlns:inkscape="http://www.inkscape.org/namespaces/inkscape"
   xmlns:sodipodi="http://sodipodi.sourceforge.net/DTD/sodipodi-0.dtd"
   xmlns:xlink="http://www.w3.org/1999/xlink"
   xmlns="http://www.w3.org/2000/svg"
   xmlns:svg="http://www.w3.org/2000/svg"><sodipodi:namedview
     id="namedview1"
     pagecolor="#505050"
     bordercolor="#eeeeee"
     borderopacity="1"
     inkscape:showpageshadow="0"
     inkscape:pageopacity="0"
     inkscape:pagecheckerboard="0"
     inkscape:deskcolor="#505050"
     inkscape:document-units="mm"
     inkscape:zoom="11.313709"
     inkscape:cx="56.170795"
     inkscape:cy="9.8553007"
     inkscape:window-width="1900"
     inkscape:window-height="1030"
     inkscape:window-x="0"
     inkscape:window-y="0"
     inkscape:window-maximized="1"
     inkscape:current-layer="svg1" /><defs
     id="defs1"><linearGradient
       id="swatch6"
       inkscape:swatch="solid"><stop
         style="stop-color:#000000;stop-opacity:1;"
         offset="0"
         id="stop6" /></linearGradient><linearGradient
       inkscape:collect="always"
       xlink:href="#swatch6"
       id="linearGradient6"
       x1="-0.1322915"
       y1="15.499999"
       x2="88.132294"
       y2="15.499999"
       gradientUnits="userSpaceOnUse"
       gradientTransform="matrix(0.25870145,0,0,0.24788602,0.25880712,0.25880703)" /></defs><rect
     style="fill:#1a1a1a;stroke:url(#linearGradient6);stroke-width:0.517614;stroke-linecap:butt;stroke-linejoin:miter;stroke-dasharray:none;stroke-opacity:1;paint-order:stroke markers fill"
     id="rect1"
     width="22.765717"
     height="7.6844692"
     x="0.258807"
     y="0.258807" /><g
     id="g1"
     transform="matrix(0.02977172,0,0,0.02977172,4.5227299,1.2229683)"><circle
       id="path1"
       style="fill:#000000;stroke:#000000;stroke-width:0.264583"
       cx="23.846415"
       cy="90.879349"
       r="0.045108449" /><circle
       id="path2"
       style="fill:#000000;stroke:#000000;stroke-width:0.264583"
       cx="41.584759"
       cy="62.819984"
       r="0.045108449" /><path
       style="fill:#ffffff;fill-opacity:1;stroke-width:0.245681"
       d="M 9.1588512,29.788865 C 16.959777,16.423917 12.533293,4.2159766 16.959777,16.190918 21.386259,28.165862 35.509479,37.256641 21.386259,29.019584 7.2630421,20.782537 -10.070885,21.070393 7.2630421,20.560629 24.596966,20.050855 38.352565,10.167379 23.904388,20.050855"
       id="path5" /><path
       style="fill:#ffffff;fill-opacity:1;stroke-width:0.279786"
       d="m 175.83827,47.440048 c 16.2481,-27.619475 0.41173,-51.9568459 15.12015,-25.680228 14.70842,26.276597 44.4748,45.754638 14.70842,26.276597 -29.76637,-19.478028 -62.77723,-19.258429 -29.76637,-19.478028 33.01085,-0.2196 68.43772,-26.7544035 33.01085,-0.191533 -35.42688,26.56287 -37.90294,34.663626 -33.07305,19.073192 z"
       id="path6" /><path
       style="fill:#ffffff;fill-opacity:1;stroke-width:0.264583"
       d="m 283.68486,97.923588 c 17.43923,-34.941473 3.94843,-68.52163 17.53672,-35.641753 13.58829,32.879863 44.45412,53.870425 13.77495,32.953583 -30.67916,-20.916863 -69.78785,-21.503003 -31.79319,-21.994033 37.99465,-0.49103 58.36936,-19.107297 37.93521,-0.66224 -20.43415,18.445073 -21.29613,18.151413 -21.29613,18.151413 l -23.35773,22.395872 z"
       id="path8" /><path
       style="fill:#ffffff;fill-opacity:1;stroke-width:0.264583"
       d="m 79.452974,28.247787 c 11.70093,-18.96698 3.05363,-38.1916697 12.4648,-19.03002 9.411176,19.16165 30.641966,35.58116 9.411176,19.16165 -21.230766,-16.4195 -49.91855,-18.00657 -21.518146,-17.16112 28.400406,0.84545 58.999716,-15.41647 28.532046,0.84545"
       id="path9" /><path
       style="fill:#ffffff;fill-opacity:1;stroke-width:0.264583"
       d="m 389.5117,147.6167 c 27.07106,-44.4973 2.10622,-98.051658 26.64092,-43.65742 24.53468,54.39425 86.41747,94.77183 24.6997,54.39425 -61.71776,-40.37761 -129.32028,-39.3208 -60.74994,-39.71015 68.57034,-0.38935 139.779,-61.406267 68.57034,-0.38935 -71.20866,61.01693 -79.8226,92.81396 -70.09807,61.67697"
       id="path10" /></g><g
     inkscape:label="Layer 1"
     inkscape:groupmode="layer"
     id="layer1" /></svg>
